<svg width="1010" height="712" viewBox="0 0 1010 712" fill="none" xmlns="http://www.w3.org/2000/svg">
<path d="M1009.17 256.845C1009.17 114.993 894.179 0 752.327 0H504.586V513.689H752.327C894.179 513.689 1009.17 398.696 1009.17 256.845V256.845Z" fill="#9E7200"/>
<path d="M835.451 394.617C833.587 381.665 819.077 374.85 807.92 381.685L662.411 470.818C652.232 477.053 650.707 491.232 659.326 499.49L761.701 597.577L842.987 675.457C855.486 687.432 876.069 676.85 873.603 659.717L835.451 394.617Z" fill="#9E7200"/>
<path d="M0 256.845C0 114.993 114.993 0 256.845 0H504.586V513.689H256.845C114.993 513.689 0 398.696 0 256.845V256.845Z" fill="#008A93"/>
<path d="M173.721 394.617C175.585 381.665 190.095 374.85 201.252 381.685L346.761 470.818C356.94 477.053 358.465 491.232 349.846 499.49L247.471 597.577L166.185 675.457C153.686 687.432 133.103 676.85 135.568 659.717L173.721 394.617Z" fill="#008A93"/>
<g clip-path="url(#clip0_7_188)">
<path d="M463.69 586.933C463.112 587.903 461.62 587.346 461.819 586.235L530.721 200.782C530.808 200.298 531.229 199.946 531.72 199.946H692.492C693.28 199.946 693.767 200.804 693.364 201.48L463.69 586.933Z" fill="#D27933"/>
<path d="M463.69 586.933C463.112 587.903 461.62 587.346 461.819 586.235L530.721 200.782C530.808 200.298 531.229 199.946 531.72 199.946H692.492C693.28 199.946 693.767 200.804 693.364 201.48L463.69 586.933Z" stroke="white"/>
<path d="M584.662 -100.48L514.63 291.292H351.223L584.662 -100.48Z" fill="#DF9A4C"/>
<path d="M584.662 -100.48L514.63 291.292H351.223L584.662 -100.48Z" stroke="white"/>
<path d="M353.009 299.411H504.928L453.828 584.8C452.037 594.802 465.464 599.816 470.666 591.085L700.338 205.637C700.338 205.637 700.338 205.637 700.338 205.637C703.966 199.547 699.578 191.826 692.491 191.826H540.572L591.672 -93.562C593.463 -103.565 580.035 -108.578 574.833 -99.8478L345.162 285.601C341.534 291.69 345.921 299.411 353.009 299.411ZM456.716 582.773L461.888 585.854L456.716 582.773C456.718 582.769 456.72 582.766 456.722 582.762L456.716 582.773Z" stroke="white" stroke-width="16.2393"/>
</g>
<defs>
<clipPath id="clip0_7_188">
<rect width="397.862" height="591.718" fill="white" transform="translate(323.819)"/>
</clipPath>
</defs>
</svg>
