<svg xmlns="http://www.w3.org/2000/svg" width="171" height="58" viewBox="0 0 171 58" fill="none">
<path fill-rule="evenodd" clip-rule="evenodd" d="M0.309082 19.5638C0.309082 9.03517 8.84425 0.5 19.3729 0.5H76.0448C78.9369 0.5 81.6785 1.144 84.1342 2.29642C79.8428 4.57238 76.7491 8.8067 76.0442 13.8083C76.0268 13.8093 76.0094 13.8102 75.9919 13.8112C75.1542 13.8484 74.3024 13.8856 73.4367 13.9229C73.4926 13.1037 73.5531 12.2846 73.6183 11.4654C73.6927 10.637 73.7765 9.80386 73.8696 8.96609H68.5777C68.5963 9.81317 68.6103 10.6602 68.6196 11.5073C68.6289 12.3451 68.6336 13.1968 68.6336 14.0625H65.7991C65.5385 14.0625 65.2825 14.0578 65.0312 14.0485C64.7891 14.0392 64.5471 14.0346 64.3051 14.0346V17.5811C64.8636 17.5811 65.4221 17.5765 65.9806 17.5672C66.5391 17.5578 67.0976 17.5532 67.6562 17.5532H68.6615V19.0332C68.6615 22.375 68.6336 25.7493 68.5777 29.1562L72.6548 28.7513C72.7014 26.8803 72.7665 25.0233 72.8503 23.1802C72.9341 21.3371 73.0318 19.4894 73.1435 17.637C74.0465 17.6649 74.9494 17.6975 75.8523 17.7347C75.8655 17.7352 75.8787 17.7358 75.8919 17.7363V24.3298C75.8919 30.2661 79.2314 35.4225 84.1342 38.0227C81.6785 39.1751 78.9369 39.8191 76.0448 39.8191H19.3729C8.84425 39.8191 0.309082 31.284 0.309082 20.7553V19.5638ZM38.3623 16.3524C37.7572 16.3524 37.1848 16.3617 36.6449 16.3803C36.105 16.3896 35.5651 16.4082 35.0252 16.4362C34.4853 16.4641 33.9314 16.5013 33.3636 16.5479C32.7958 16.5944 32.1907 16.6503 31.5485 16.7154C31.6415 16.2407 31.7067 15.7287 31.7439 15.1795C31.7905 14.6303 31.8137 14.0672 31.8137 13.49C31.8137 13.1363 31.8044 12.7826 31.7858 12.4289C31.7765 12.0751 31.7486 11.74 31.702 11.4235C31.0318 11.2374 30.2732 11.1024 29.4261 11.0186C28.579 10.9255 27.7273 10.879 26.8709 10.879C26.2659 10.879 25.6794 10.9023 25.1116 10.9488C24.5438 10.986 24.0225 11.0419 23.5478 11.1164C23.3616 12.252 23.222 13.4156 23.1289 14.607C23.0451 15.7892 23.0032 16.99 23.0032 18.2094C23.0032 19.5126 23.0498 20.8065 23.1429 22.0911C23.236 23.3757 23.3709 24.6463 23.5478 25.9029C23.8922 26.0239 24.2832 26.131 24.7207 26.2241C25.1582 26.3172 25.6143 26.3963 26.089 26.4614C26.5637 26.5266 27.0431 26.5778 27.5272 26.615C28.0205 26.6523 28.4953 26.6709 28.9514 26.6709C29.2679 26.6709 29.5704 26.6662 29.859 26.6569C30.1568 26.6383 30.4361 26.6057 30.6967 26.5592C30.827 26.0007 30.9294 25.3816 31.0039 24.7021C31.0877 24.0133 31.1296 23.3245 31.1296 22.6356C31.1296 22.0864 31.1016 21.5512 31.0458 21.0299C31.7905 21.1044 32.4979 21.1602 33.1681 21.1975C33.8477 21.2254 34.5411 21.2394 35.2486 21.2394C36.1608 21.2394 37.1615 21.2114 38.2506 21.1556C38.0737 22.1702 37.8084 23.0685 37.4547 23.8504C37.101 24.6323 36.6867 25.3165 36.212 25.9029C35.7466 26.4894 35.2346 26.992 34.6761 27.4109C34.1269 27.8298 33.5591 28.1789 32.9727 28.4581C32.3955 28.7374 31.8184 28.9608 31.2413 29.1283C30.6641 29.2959 30.1196 29.4215 29.6076 29.5053C29.105 29.5891 28.6442 29.6403 28.2253 29.6589C27.8157 29.6868 27.4853 29.7008 27.234 29.7008C25.7446 29.7008 24.4461 29.5519 23.3383 29.254C22.2399 28.9561 21.2998 28.5512 20.5179 28.0392C19.736 27.5273 19.089 26.9315 18.577 26.252C18.0744 25.5725 17.6788 24.8511 17.3902 24.0878C17.1016 23.3152 16.9015 22.5239 16.7898 21.7141C16.6781 20.9043 16.6223 20.1177 16.6223 19.3544C16.6223 17.6137 16.841 16.0452 17.2785 14.6489C17.716 13.2527 18.3955 12.0519 19.3171 11.0465C20.2479 10.0412 21.4301 9.25 22.8636 8.67287C24.2971 8.08644 26.0099 7.73737 28.0019 7.62567C29.2865 7.62567 30.5106 7.81649 31.6741 8.19814C32.8377 8.57979 33.8802 9.1383 34.8018 9.87367C35.7326 10.609 36.5099 11.5213 37.1336 12.6104C37.7572 13.6995 38.1668 14.9468 38.3623 16.3524ZM55.2852 20.639C55.2852 21.877 55.22 23.1383 55.0897 24.4229C54.9594 25.7074 54.736 26.992 54.4195 28.2766H49.5604C49.6721 26.8896 49.7606 25.5213 49.8257 24.1715C49.9002 22.8125 49.9374 21.4441 49.9374 20.0665V18.6842C49.9374 18.2188 49.9281 17.7533 49.9095 17.2879C49.4906 17.2414 49.0717 17.2134 48.6528 17.2041C48.2433 17.1855 47.829 17.1762 47.4102 17.1762C46.5724 17.1762 45.7346 17.2041 44.8969 17.26V19.0612C44.8969 20.5971 44.9201 22.1283 44.9667 23.6549C45.0132 25.1722 45.0877 26.7128 45.1901 28.2766H40.4986C40.4986 24.9069 40.452 21.5698 40.359 18.2653C40.2659 14.9608 40.1123 11.6423 39.8982 8.30984L45.1901 8.00266C45.1249 9.22208 45.0691 10.4368 45.0225 11.6469C44.976 12.857 44.9434 14.0718 44.9248 15.2912C45.4647 14.8816 46.0232 14.5698 46.6003 14.3557C47.1774 14.1323 47.7034 13.9694 48.1781 13.867C48.7366 13.746 49.2812 13.6762 49.8117 13.6576C50.4913 13.6576 51.0963 13.7507 51.6269 13.9368C52.1668 14.123 52.6369 14.3836 53.0371 14.7188C53.4467 15.0445 53.7911 15.4309 54.0704 15.8777C54.359 16.3245 54.5917 16.8085 54.7685 17.3298C54.9547 17.8418 55.085 18.3816 55.1595 18.9495C55.2433 19.5173 55.2852 20.0805 55.2852 20.639ZM62.839 13.9229C62.6342 15.9987 62.4946 18.0465 62.4201 20.0665C62.355 22.0864 62.3224 24.1064 62.3224 26.1263V27.2015C62.3224 27.5552 62.3317 27.9136 62.3503 28.2766H58.0358C58.0358 27.6995 58.0405 27.127 58.0498 26.5592C58.0591 25.9914 58.0637 25.4282 58.0637 24.8697C58.0637 23.0173 58.0172 21.1835 57.9241 19.3684C57.8403 17.5532 57.7054 15.738 57.5192 13.9229H62.839ZM62.6016 10.3205C62.4434 10.5997 62.2246 10.8464 61.9454 11.0605C61.6661 11.2653 61.3403 11.4328 60.968 11.5632C60.5957 11.6842 60.2 11.7447 59.7812 11.7447C59.3623 11.7447 58.9713 11.6842 58.6083 11.5632C58.2453 11.4328 57.9288 11.2653 57.6588 11.0605C57.3889 10.8464 57.1748 10.5997 57.0165 10.3205C56.8583 10.0319 56.7792 9.72474 56.7792 9.39894C56.7792 9.08245 56.8583 8.78458 57.0165 8.50532C57.1748 8.21676 57.3889 7.97008 57.6588 7.76529C57.9288 7.5512 58.2453 7.38364 58.6083 7.26263C58.9713 7.14162 59.3623 7.08112 59.7812 7.08112C60.2 7.08112 60.5957 7.14162 60.968 7.26263C61.3403 7.38364 61.6661 7.5512 61.9454 7.76529C62.2246 7.97008 62.4434 8.21676 62.6016 8.50532C62.7599 8.78458 62.839 9.08245 62.839 9.39894C62.839 9.72474 62.7599 10.0319 62.6016 10.3205Z" fill="#BB8700"/>
<path fill-rule="evenodd" clip-rule="evenodd" d="M99.2018 0.5C88.6731 0.5 80.1379 9.03517 80.1379 19.5638V20.7553C80.1379 31.284 88.6731 39.8191 99.2018 39.8191H151.627C162.156 39.8191 170.691 31.284 170.691 20.7553V19.5638C170.691 9.03516 162.156 0.5 151.627 0.5H99.2018ZM108.326 17.5718C108.866 17.5532 109.439 17.5439 110.044 17.5439C109.848 16.1383 109.439 14.891 108.815 13.8019C108.191 12.7128 107.414 11.8005 106.483 11.0652C105.562 10.3298 104.519 9.77129 103.356 9.38964C102.192 9.00799 100.968 8.81716 99.6835 8.81716C97.6914 8.92887 95.9787 9.27794 94.5452 9.86437C93.1116 10.4415 91.9295 11.2327 90.9986 12.238C90.0771 13.2434 89.3976 14.4442 88.9601 15.8404C88.5226 17.2367 88.3038 18.8052 88.3038 20.5459C88.3038 21.3092 88.3597 22.0958 88.4714 22.9056C88.5831 23.7154 88.7832 24.5067 89.0718 25.2793C89.3603 26.0426 89.7559 26.764 90.2586 27.4435C90.7706 28.123 91.4175 28.7188 92.1994 29.2307C92.9813 29.7427 93.9215 30.1476 95.0199 30.4455C96.1276 30.7434 97.4261 30.8923 98.9155 30.8923C99.1668 30.8923 99.4973 30.8783 99.9069 30.8504C100.326 30.8318 100.787 30.7806 101.289 30.6968C101.801 30.613 102.346 30.4874 102.923 30.3198C103.5 30.1523 104.077 29.9289 104.654 29.6496C105.241 29.3704 105.808 29.0213 106.358 28.6024C106.916 28.1835 107.428 27.6809 107.894 27.0944C108.368 26.508 108.783 25.8238 109.136 25.0419C109.49 24.26 109.755 23.3617 109.932 22.3471C108.843 22.4029 107.842 22.4309 106.93 22.4309C106.223 22.4309 105.529 22.4169 104.85 22.389C104.179 22.3517 103.472 22.2959 102.727 22.2214C102.783 22.7427 102.811 23.2779 102.811 23.8271C102.811 24.516 102.769 25.2048 102.685 25.8936C102.611 26.5731 102.509 27.1922 102.378 27.7507C102.118 27.7972 101.838 27.8298 101.541 27.8484C101.252 27.8577 100.949 27.8624 100.633 27.8624C100.177 27.8624 99.7021 27.8438 99.2087 27.8065C98.7247 27.7693 98.2453 27.7181 97.7706 27.6529C97.2958 27.5878 96.8397 27.5087 96.4022 27.4156C95.9647 27.3225 95.5737 27.2154 95.2293 27.0944C95.0525 25.8378 94.9175 24.5672 94.8244 23.2826C94.7313 21.998 94.6848 20.7041 94.6848 19.4009C94.6848 18.1815 94.7267 16.9807 94.8105 15.7985C94.9035 14.6071 95.0432 13.4435 95.2293 12.3079C95.7041 12.2334 96.2253 12.1775 96.7932 12.1403C97.361 12.0938 97.9474 12.0705 98.5525 12.0705C99.4089 12.0705 100.261 12.117 101.108 12.2101C101.955 12.2939 102.713 12.4289 103.384 12.615C103.43 12.9315 103.458 13.2666 103.467 13.6204C103.486 13.9741 103.495 14.3278 103.495 14.6815C103.495 15.2587 103.472 15.8218 103.425 16.371C103.388 16.9202 103.323 17.4322 103.23 17.9069C103.872 17.8418 104.477 17.7859 105.045 17.7394C105.613 17.6928 106.167 17.6556 106.707 17.6277C107.247 17.5997 107.787 17.5811 108.326 17.5718ZM126.771 25.6144C126.902 24.3298 126.967 23.0685 126.967 21.8305C126.967 21.2719 126.925 20.7088 126.841 20.141C126.767 19.5731 126.636 19.0333 126.45 18.5213C126.273 18 126.041 17.516 125.752 17.0692C125.473 16.6223 125.128 16.236 124.719 15.9102C124.318 15.5751 123.848 15.3145 123.308 15.1283C122.778 14.9422 122.173 14.8491 121.493 14.8491C120.963 14.8677 120.418 14.9375 119.86 15.0585C119.385 15.1609 118.859 15.3238 118.282 15.5472C117.705 15.7613 117.146 16.0731 116.606 16.4827C116.625 15.2633 116.658 14.0485 116.704 12.8384C116.751 11.6283 116.806 10.4136 116.872 9.19416L111.58 9.50134C111.794 12.8338 111.947 16.1523 112.041 19.4568C112.134 22.7613 112.18 26.0984 112.18 29.4681H116.872C116.769 27.9043 116.695 26.3637 116.648 24.8464C116.602 23.3198 116.578 21.7886 116.578 20.2527V18.4515C117.416 18.3956 118.254 18.3677 119.092 18.3677C119.511 18.3677 119.925 18.377 120.334 18.3956C120.753 18.4049 121.172 18.4329 121.591 18.4794C121.61 18.9448 121.619 19.4102 121.619 19.8757V21.258C121.619 22.6356 121.582 24.004 121.507 25.363C121.442 26.7128 121.354 28.0811 121.242 29.4681H126.101C126.417 28.1835 126.641 26.8989 126.771 25.6144ZM140.706 29.3424C140.715 29.6124 140.72 29.8823 140.72 30.1523L145.216 29.8591C145.188 29.2261 145.16 28.6257 145.132 28.0579C145.114 27.4807 145.095 26.9129 145.076 26.3544L145.048 24.6509V22.8218C145.048 20.1782 145.104 17.5206 145.216 14.8491L139.701 15.2261L139.924 16.9435C139.505 16.6735 139.082 16.4641 138.654 16.3152C138.225 16.1569 137.83 16.0452 137.467 15.9801C137.104 15.9056 136.796 15.8637 136.545 15.8544C136.303 15.8358 136.164 15.8265 136.126 15.8265C134.925 15.8358 133.869 16.0266 132.957 16.3989C132.044 16.762 131.281 17.2786 130.667 17.9488C130.052 18.619 129.592 19.4242 129.285 20.3644C128.977 21.2952 128.824 22.3285 128.824 23.4641C128.87 24.5904 129.098 25.5818 129.508 26.4382C129.927 27.2852 130.471 27.9927 131.142 28.5605C131.812 29.1283 132.575 29.5519 133.431 29.8311C134.297 30.1197 135.195 30.264 136.126 30.264C136.638 30.2454 137.155 30.1709 137.676 30.0406C138.123 29.9289 138.612 29.7613 139.142 29.5379C139.682 29.3052 140.199 28.9654 140.692 28.5186C140.692 28.7886 140.697 29.0632 140.706 29.3424ZM137.467 26.5499C136.396 26.6523 135.307 26.7267 134.199 26.7733C134.125 26.4009 134.06 26.0519 134.004 25.7261C133.957 25.4003 133.916 25.0791 133.878 24.7626C133.85 24.4462 133.827 24.1297 133.808 23.8132C133.79 23.4874 133.781 23.1383 133.781 22.766C133.781 21.7793 133.836 20.7972 133.948 19.8198C134.87 19.6802 135.782 19.5825 136.685 19.5266C137.597 19.4614 138.505 19.4289 139.408 19.4289H140.203C140.324 20.5552 140.417 21.6583 140.483 22.738C140.557 23.8178 140.608 24.9348 140.636 26.0891C139.594 26.2939 138.537 26.4475 137.467 26.5499ZM158.453 18.9262C159.365 18.9634 160.273 19.0053 161.175 19.0519V14.8491C160.3 14.9049 159.439 14.9561 158.592 15.0027C157.755 15.0399 156.903 15.0771 156.037 15.1144C156.093 14.2952 156.154 13.4761 156.219 12.6569C156.293 11.8285 156.377 10.9954 156.47 10.1576H151.178C151.197 11.0047 151.211 11.8517 151.22 12.6988C151.229 13.5366 151.234 14.3883 151.234 15.254H148.4C148.139 15.254 147.883 15.2493 147.632 15.24C147.39 15.2307 147.148 15.2261 146.906 15.2261V18.7726C147.464 18.7726 148.023 18.768 148.581 18.7587C149.14 18.7493 149.698 18.7447 150.257 18.7447H151.262V20.2247C151.262 23.5665 151.234 26.9408 151.178 30.3477L155.255 29.9428C155.302 28.0718 155.367 26.2148 155.451 24.3717C155.535 22.5286 155.632 20.6809 155.744 18.8285C156.647 18.8564 157.55 18.889 158.453 18.9262Z" fill="#00B0BB"/>
<path d="M28.309 56.4998L22.3516 39.819H42.6069L28.309 56.4998Z" fill="#BB8700" stroke="#BB8700" stroke-width="1.19149"/>
<path d="M145.671 56.4998L151.628 39.819H131.373L145.671 56.4998Z" fill="#00B0BB" stroke="#00B0BB" stroke-width="1.19149"/>
</svg>